<?xml version="1.0" encoding="utf-8"?>
<!-- Generator: Adobe Illustrator 24.0.0, SVG Export Plug-In . SVG Version: 6.00 Build 0)  -->
<svg version="1.1" xmlns="http://www.w3.org/2000/svg" xmlns:xlink="http://www.w3.org/1999/xlink" x="0px" y="0px"
	 viewBox="0 0 105 105" style="enable-background:new 0 0 105 105;" xml:space="preserve">
<style type="text/css">
	.st0{display:none;}
	.st1{fill:#018837;}
	.st2{display:inline;}
	.st3{display:inline;fill:none;stroke:#FFFFFF;stroke-width:8;stroke-linecap:round;stroke-miterlimit:10;}
	.st4{fill:#FFFFFF;}
	.st5{display:inline;fill:#FFFFFF;}
</style>
<g id="Линейки" class="st0">
	<rect class="st1" width="20" height="105"/>
	<rect x="85" class="st1" width="20" height="105"/>
	<rect x="42.5" y="-42.5" transform="matrix(6.123234e-17 -1 1 6.123234e-17 42.5 62.5)" class="st1" width="20" height="105"/>
	<rect x="42.5" y="42.5" transform="matrix(6.123234e-17 -1 1 6.123234e-17 -42.5 147.5)" class="st1" width="20" height="105"/>
	<rect y="20" class="st2" width="105" height="65.22"/>
</g>
<g id="Слой_1" class="st0">
	<line class="st3" x1="20" y1="20" x2="85" y2="85"/>
	<line class="st3" x1="20" y1="85" x2="85" y2="20"/>
</g>
<g id="Слой_2" class="st0">
	<g id="Слой_3__x28_копия_x29_">
		<rect class="st1" width="20" height="105"/>
		<rect x="85" class="st1" width="20" height="105"/>
		<rect x="42.5" y="-42.5" transform="matrix(6.123234e-17 -1 1 6.123234e-17 42.5 62.5)" class="st1" width="20" height="105"/>
		<rect x="42.5" y="42.5" transform="matrix(6.123234e-17 -1 1 6.123234e-17 -42.5 147.5)" class="st1" width="20" height="105"/>
		<rect y="20" class="st2" width="105" height="85"/>
	</g>
	<g id="Слой_1__x28_копия_x29_">
	</g>
</g>
<g id="Слой_7">
	<path class="st4" d="M85,85.22c-1.02,0-2.05-0.35-2.83-1.05l-65-58.07c-1.56-1.4-1.56-3.66,0-5.05c1.56-1.4,4.09-1.4,5.66,0
		l65,58.07c1.56,1.4,1.56,3.66,0,5.05C87.05,84.87,86.02,85.22,85,85.22z"/>
	<path class="st4" d="M20,85.22c-1.02,0-2.05-0.35-2.83-1.05c-1.56-1.4-1.56-3.66,0-5.05l65-58.07c1.56-1.4,4.1-1.4,5.66,0
		c1.56,1.4,1.56,3.66,0,5.05l-65,58.07C22.05,84.87,21.02,85.22,20,85.22z"/>
</g>
<g id="Слой_6" class="st0">
	<path class="st5" d="M85,27.15H20c-2.21,0-4-1.6-4-3.57S17.79,20,20,20h65c2.21,0,4,1.6,4,3.57S87.21,27.15,85,27.15z"/>
	<path class="st5" d="M85,56.18H20c-2.21,0-4-1.6-4-3.57s1.79-3.57,4-3.57h65c2.21,0,4,1.6,4,3.57S87.21,56.18,85,56.18z"/>
	<path class="st5" d="M85,85.22H20c-2.21,0-4-1.6-4-3.57c0-1.97,1.79-3.57,4-3.57h65c2.21,0,4,1.6,4,3.57
		C89,83.62,87.21,85.22,85,85.22z"/>
</g>
</svg>
